<svg id="Layer_1" data-name="Layer 1" xmlns="http://www.w3.org/2000/svg" viewBox="0 0 708.66 708.66"><defs><style>.cls-1{fill:#fcbd38;}.cls-2{fill:#ffcc26;}.cls-3{fill:#fedb48;}.cls-4{fill:#965f44;}</style></defs><title>sunflower</title><path class="cls-1" d="M619,351l-2-1c-4.87-2.47-11-5.43-18.23-8.56-3-1.29-6.13-2.62-9.47-3.95-14.94-6-26.93-10.74-43.61-13.58-23-3.91-36.76-1.74-42.48-.51-17,3.66-21.33,9.77-22.91,12.63a19.74,19.74,0,0,0-2,5.41,24.85,24.85,0,0,0-.36,7.51c1.37-.71,2.87-1.43,4.48-2.13s3.35-1.4,5.19-2A76.55,76.55,0,0,1,500,341.47l.48-.07H526a84.66,84.66,0,0,1,17.41,4.83c.59.23,1.15.46,1.67.68-4.13-.47-8-.79-11.64-1-6-.34-11.36-.38-15.78-.29l-1.6.05c-1.34.05-3.22.15-5.5.38l-1.79.19a100.08,100.08,0,0,0-15.87,3.2q-2.58.75-5.27,1.7l-1.44.53c-3.23,1.24-5.53,2.5-5.55,4a3,3,0,0,0,1.48,2.21,12,12,0,0,0,1.61,1,34.48,34.48,0,0,0,5.05,2c1.37.43,2.67.79,3.63,1.05l.66.17a69,69,0,0,0,22.47,2q2.09-.15,4.32-.42a44.85,44.85,0,0,1-5.49,2.4c-.78.28-1.6.55-2.48.81a44.27,44.27,0,0,1-28.08-1,43.26,43.26,0,0,1-5.51-2.49c.16,1,.36,2,.64,3.07A29,29,0,0,0,483.84,377a25.83,25.83,0,0,0,1.69,2c11.64,12.32,32.6,8.91,49.47,6.17A149.43,149.43,0,0,0,564.83,377h0c7.89-3,15.59-6.53,23.64-10.37l8.18-3.95,3.43-1.69c7.81-3.88,14.24-7.37,18.89-10Z"/><path class="cls-1" d="M411.71,244.78a78.15,78.15,0,0,1,4.35-21.17c.19-.53.37-1.06.58-1.61a77.92,77.92,0,0,1,14.08-23.35,81.58,81.58,0,0,1,5.69-5.91,83.25,83.25,0,0,1,8-6.66c-2.52,3.3-4.79,6.48-6.82,9.49-1.36,2-2.61,3.94-3.77,5.78-1.74,2.76-3.25,5.32-4.56,7.63a88.33,88.33,0,0,0-4.65,9.4c-.68,1.59-1.38,3.34-2.07,5.23a96.32,96.32,0,0,0-3.92,14c-.81,4.14-1.15,7.42.35,8.35,2.66,1.63,9.54-5.12,11.87-7.4a67.77,67.77,0,0,0,11.4-14.93,78.07,78.07,0,0,0,3.66-7.27,44.89,44.89,0,0,1-1.05,7.27,44.17,44.17,0,0,1-20.48,28.27,29.51,29.51,0,0,0,17.1,1.75c13.4-3,21.08-16.53,26.85-30,1.35-3.15,2.6-6.3,3.79-9.31s2.17-5.78,3.09-8.63a162.4,162.4,0,0,0,5.87-25.37c1.5-9.74,2.37-19.71,3.3-30.47.16-1.9.3-3.73.43-5.51.58-7.94.85-14.66,1-19.64q-2.5,1.56-5.51,3.5c-6,3.89-13.27,8.91-21.33,15.09l-1.38,1c-12.13,9.29-22,17.05-32.62,29.45-1.93,2.26-3.69,4.44-5.31,6.53a116.33,116.33,0,0,0-14.48,23.56c-1.14,2.56-1.9,4.62-2.4,6.13a57.68,57.68,0,0,0-3.07,13.62c-.58,7,1.09,10.66,2.18,12.53A22.27,22.27,0,0,0,411.71,244.78Z"/><path class="cls-1" d="M300.47,469a44.6,44.6,0,0,1-5.64,20.8c-.48.87-1,1.66-1.5,2.45a44.75,44.75,0,0,1-13,13.08,74.67,74.67,0,0,0,7.81-13.08,66.5,66.5,0,0,0,4-11c.82-3.15,3.27-12.47.53-14-1.55-.84-4.23,1.08-7.42,3.84A98.19,98.19,0,0,0,267,492.27c-.64,1-1.1,1.78-1.4,2.28a206.54,206.54,0,0,0-12.36,24.51c.09-.72.19-1.52.31-2.37a85.75,85.75,0,0,1,1.82-9.11A82,82,0,0,1,261,492.27a76.84,76.84,0,0,1,9.67-15.12A77.83,77.83,0,0,1,288,461.57a22.2,22.2,0,0,0-12.41-4.29c-3.26,0-10.73.76-22.25,13.74-2.8,3.14-8.05,9.69-13.71,21.25-1.11,2.26-2.24,4.72-3.37,7.38-.56,1.33-1.12,2.71-1.69,4.15s-1.12,2.92-1.67,4.47c-1.45,4-2.64,7.84-3.65,11.56s-1.82,7.34-2.53,11c-.48,2.42-.9,4.84-1.3,7.29-.76,4.75-1.43,9.62-2.14,14.83-1.06,7.89-1.74,15-2.18,21.15q-.24,3.23-.39,6.08c-.1,1.91-.19,3.68-.25,5.3,1.7-1,3.62-2.21,5.73-3.53,3.52-2.21,7.58-4.84,12-7.85l3.4-2.32c15.82-11,29.57-20.48,42.06-33.66,1.33-1.41,2.65-2.85,3.95-4.35s2.6-3,3.88-4.62l1.63-2c2.21-2.77,4.47-5.66,6.63-8.64.54-.75,1.07-1.5,1.59-2.26a74.67,74.67,0,0,0,6.78-11.72,36.55,36.55,0,0,0,3.32-12.18,24.9,24.9,0,0,0-1-9.27A29.41,29.41,0,0,0,300.47,469Z"/><path class="cls-1" d="M487.68,574.07c-.43-6.6-1.14-14.45-2.33-23.26-.6-4.44-1.18-8.63-1.81-12.72a162.65,162.65,0,0,0-7.8-31.93c-1.89-5.25-3.82-9.85-5.72-13.89-6-12.89-11.77-20-14.72-23.35-6.91-7.78-12.35-11.17-16.31-12.64a17.42,17.42,0,0,0-3.48-.92,14,14,0,0,0-2.47-.18,19.85,19.85,0,0,0-6.23,1.1,25.22,25.22,0,0,0-6.18,3.19,76.61,76.61,0,0,1,28,32.8,82.48,82.48,0,0,1,4.85,14.09,85.11,85.11,0,0,1,1.92,10.6c-2.16-5.1-4.35-9.7-6.45-13.79-.52-1-1-2-1.55-3-1.54-2.87-3-5.46-4.36-7.74l-.11-.18A97,97,0,0,0,423.45,469c-3.19-2.76-5.87-4.69-7.42-3.84-2.74,1.5-.29,10.82.54,14a66.57,66.57,0,0,0,5,13.12,76.45,76.45,0,0,0,6.78,11,44.12,44.12,0,0,1-5.2-4c-1-.9-2.08-1.93-3.16-3.09a45.47,45.47,0,0,1-3.21-3.9,44.16,44.16,0,0,1-3-4.55,44.66,44.66,0,0,1-5.64-20.81c-3.43,2.78-7.94,7.34-10,14a25.45,25.45,0,0,0-.75,11.38c1.15,7.74,5.36,15.38,10.35,22.52,3,4.28,6.28,8.39,9.34,12.22.81,1,1.61,2,2.42,2.94,2.44,2.87,4.92,5.57,7.45,8.14h0c11.95,12.1,25.06,21.19,40,31.55q3.41,2.36,6.54,4.43c5.77,3.84,10.77,6.95,14.61,9.27-.08-2-.19-4.29-.33-6.75C487.79,575.77,487.74,574.93,487.68,574.07Z"/><path class="cls-1" d="M226.26,377h0a29.66,29.66,0,0,0,3.24-7.5,35.42,35.42,0,0,0,.89-4,44.32,44.32,0,0,1-41.56.29,76.9,76.9,0,0,0,12.16.56,67.31,67.31,0,0,0,12.29-1.55c.83-.19,1.61-.38,2.34-.58,1-.26,2.59-.68,4.32-1.23a33.67,33.67,0,0,0,5.07-2h0c1.78-.93,3.05-2,3-3.16,0-1.76-3-3.15-7-4.57a97.08,97.08,0,0,0-30-5.52A204.26,204.26,0,0,0,163.62,349a80.88,80.88,0,0,1,45.06-5.43A77.34,77.34,0,0,1,230.76,351a22.22,22.22,0,0,0-2.36-12.91c-1.58-2.86-5.94-9-22.91-12.63-5.72-1.24-19.47-3.4-42.48.51-16.68,2.83-28.67,7.62-43.61,13.58-12.57,5-22.7,9.92-29.71,13.53,3.79,2.14,8.77,4.86,14.7,7.89,2.39,1.22,4.93,2.49,7.63,3.79,9.22,4.48,17.81,8.64,26.49,12.22h0a155.24,155.24,0,0,0,35.15,10.27c16.87,2.74,37.84,6.14,49.47-6.17A24.51,24.51,0,0,0,226.26,377Z"/><path class="cls-1" d="M236.57,216.41c6.29,15.89,14.1,35.64,30.64,39.33a29.51,29.51,0,0,0,17.1-1.75,44.36,44.36,0,0,1-21.53-35.55,70.36,70.36,0,0,0,15.07,22.21c2.32,2.28,9.2,9,11.86,7.39,1.5-.92,1.16-4.21.35-8.34a97.85,97.85,0,0,0-10.63-28.62,206.55,206.55,0,0,0-15.15-22.89A80.87,80.87,0,0,1,292,224.11,77.25,77.25,0,0,1,297,246.89a22.25,22.25,0,0,0,9.88-8.65c1.65-2.82,4.66-9.69-.88-26.14-1.87-5.54-7.06-18.47-22.2-36.23-11-12.87-21.22-20.72-34-30.5C239,137.14,229.6,131,222.91,126.78c.15,6.1.51,14.78,1.4,25.16C226.32,175.2,228,194.77,236.57,216.41Z"/><path class="cls-2" d="M544.68,524.9a171.9,171.9,0,0,0-10.56-20.48c-7.51-2.33-15.44-5.09-23.69-8.39q-4.6-1.84-9-3.76c-10.06-4.39-19.22-9-27.43-13.6a143.16,143.16,0,0,1,7.88,13.6c1,2,2,4.07,3,6.26a142.34,142.34,0,0,1,7.39,20.57c.57,2.07,1.07,4.07,1.5,6a163.34,163.34,0,0,0,16.35,7.83c2,.84,4.14,1.66,6.31,2.45,2.82,1,5.57,1.92,8.27,2.74h0a162.76,162.76,0,0,0,26.85,5.72c-.56-1.85-1.18-3.77-1.84-5.72C548.33,533.9,546.67,529.5,544.68,524.9Z"/><path class="cls-2" d="M511.62,209.8q3-1.5,5.88-2.9c5.84-2.81,11.51-5.31,17-7.55.67-1.38,1.35-2.82,2-4.3q2-4.47,4-9.54c.65-1.69,1.28-3.42,1.9-5.21.27-.77.55-1.5.81-2.29a172.56,172.56,0,0,0,5.2-19.45,160.25,160.25,0,0,0-52.71,21.74c-1.07.69-2.16,1.38-3.17,2.06-.13,1-.28,1.95-.44,3q-.48,3-1.15,6.35a142.77,142.77,0,0,1-4.92,17.9c-1.34,3.87-2.78,7.45-4.26,10.78-.49,1.11-1,2.2-1.48,3.25-1.12,2.37-2.24,4.64-3.36,6.71q4.9-3.33,10.3-6.71C494.62,219,502.76,214.3,511.62,209.8Z"/><path class="cls-2" d="M307.82,574.07q-.72-3.36-1.26-7a111.93,111.93,0,0,1-.42-29c.34-2.9.76-5.61,1.23-8.11s1-4.79,1.5-6.84c-.62,1.12-1.28,2.28-2,3.47a134.25,134.25,0,0,1-7.71,11.48c-1.67,2.23-3.48,4.51-5.46,6.81A130,130,0,0,1,273.24,564c-.23,3.14-.37,6.52-.42,10.06-.06,4.65.05,9.58.47,14.82A159.67,159.67,0,0,0,276,608.33c.3,1.48.62,2.93,1,4.34.65,2.82,1.35,5.49,2.08,8,.36,1.26.73,2.49,1.1,3.67q7.06-7,14.34-14.13,9.44-9.21,18.8-18.05c-1-2.53-2-5.31-2.94-8.33S308.56,577.56,307.82,574.07Z"/><path class="cls-2" d="M415,542.79q-2.08-2.37-4-4.7a143.36,143.36,0,0,1-9.59-13.45q.31,6.39.29,13.45a247.62,247.62,0,0,1-1.65,27.13c-.35,3-.77,6-1.21,8.85-.73,4.77-1.56,9.34-2.48,13.67,5.25,6.55,11.17,13.4,17.8,20.37,4.86,5.11,9.67,9.81,14.34,14.13.48-1.5.94-3.09,1.39-4.73q.81-2.84,1.54-5.93c.48-2,.94-4.07,1.36-6.22a160.41,160.41,0,0,0,2.54-18.08c0-.17,0-.33,0-.5.18-2.22.3-4.39.38-6.51s.12-4.19.12-6.2c0-4.33-.17-8.4-.45-12.17A141.84,141.84,0,0,1,415,542.79Z"/><path class="cls-2" d="M198.23,498.14c-4.12,1.64-8.17,3.16-12.12,4.55s-7.81,2.67-11.57,3.83A171.32,171.32,0,0,0,164,527q-1.24,2.87-2.32,5.64t-2,5.44c-.95,2.7-1.82,5.32-2.57,7.82a161.64,161.64,0,0,0,33.29-7.82h0l1.83-.63a163.15,163.15,0,0,0,17.65-7.64c1.74-.88,3.41-1.77,5-2.65.65-2.85,1.44-5.91,2.41-9.14.65-2.16,1.37-4.39,2.18-6.68.41-1.15.84-2.31,1.29-3.49.91-2.35,1.91-4.77,3-7.23.67-1.49,1.35-2.92,2-4.31s1.39-2.73,2.09-4.05c2.26-4.25,4.55-8.11,6.77-11.49-6.91,3.86-14.49,7.74-22.71,11.49Q205.36,495.27,198.23,498.14Z"/><path class="cls-2" d="M191.25,397.75a142,142,0,0,1-49.12-11.49A161.48,161.48,0,0,0,101.82,413c-3.34,3-6.34,6-9,8.78a171.84,171.84,0,0,0,19.33,5.62A174.11,174.11,0,0,0,134.93,431q2.37-1.75,4.86-3.53c5-3.53,10.27-7.09,15.92-10.61,2.15-1.34,4.27-2.62,6.39-3.87A310.83,310.83,0,0,1,191.25,397.75Z"/><path class="cls-2" d="M399.61,144.32c.22,1.6.44,3.21.63,4.85a310.78,310.78,0,0,1,2.12,31.13c0,1.57.05,3.11.05,4.64s0,3,0,4.51h0c1.54-2.88,3.31-5.95,5.33-9.15s4.32-6.52,6.9-9.91a141.58,141.58,0,0,1,19.06-20.5c0-1.79,0-3.65-.07-5.57a162.75,162.75,0,0,0-1.73-19.25c-.52-3.48-1.14-6.82-1.84-10a160,160,0,0,0-4.82-17.48c-.88-2.62-1.79-5.08-2.69-7.39Q421,91.8,419.3,93.54c-3.28,3.5-6.67,7.4-10.07,11.75A170.87,170.87,0,0,0,399,119.84c-1,1.54-1.88,3-2.74,4.51q.95,4.71,1.79,9.71T399.61,144.32Z"/><path class="cls-2" d="M532.72,305.42c-5,3.19-10,6.12-14.71,8.77a142,142,0,0,1,49.89,7.45,161.32,161.32,0,0,0,20.63-13.91c1-.77,1.9-1.54,2.83-2.31,1.2-1,2.37-2,3.51-3,3.41-3,6.53-6,9.37-8.93.94-1,1.86-2,2.74-2.91,1.77-1.92,3.42-3.8,4.95-5.62.77-.91,1.5-1.81,2.21-2.69a171.2,171.2,0,0,0-37.43-5.64c-1.81-.08-3.57-.12-5.27-.13-5.92,5.18-12.43,10.49-19.56,15.78q-7.35,5.46-14.46,10.11Q535.05,303.94,532.72,305.42Z"/><path class="cls-2" d="M609.11,413a160.25,160.25,0,0,0-42.58-28.81,142.22,142.22,0,0,1-49.12,11.48A313.92,313.92,0,0,1,550.07,413c1,.59,1.92,1.16,2.88,1.76,7.54,4.7,14.45,9.46,20.78,14.14a172.58,172.58,0,0,0,42.09-9.22C613.8,417.51,611.54,415.26,609.11,413Z"/><path class="cls-2" d="M294,172.49a140.9,140.9,0,0,1,12.23,19.07,314.35,314.35,0,0,1,2.16-40.29c1.05-8.81,2.41-17.1,4-24.81a171.56,171.56,0,0,0-26.26-34.17A161.28,161.28,0,0,0,275,152,142.11,142.11,0,0,1,294,172.49Z"/><path class="cls-2" d="M120.13,309.84a162.38,162.38,0,0,0,20.63,13.91,142,142,0,0,1,49.89-7.45,314.24,314.24,0,0,1-33.87-21.92c-7.12-5.3-13.63-10.6-19.55-15.79a172.85,172.85,0,0,0-42.71,5.77A161.86,161.86,0,0,0,120.13,309.84Z"/><path class="cls-2" d="M174.19,201.46c7.28,3,14.94,6.44,22.85,10.45a314.55,314.55,0,0,1,34.74,20.52,141.82,141.82,0,0,1-15.61-48,161,161,0,0,0-55.88-23.79,171.63,171.63,0,0,0,13.9,40.79Z"/><path class="cls-3" d="M462.88,273.79a92.54,92.54,0,0,1,17.71-14.19A101.33,101.33,0,0,1,524,245.14a252.09,252.09,0,0,0-30.1,14.46l-.41.23-.74.42a120.41,120.41,0,0,0-28.6,23.19c-.87,1-1.67,1.89-2.37,2.77-.35.44-.68.87-1,1.28-1.18,1.66-1.87,3.1-1.78,4.22a1.94,1.94,0,0,0,.22.79c1.45,2.77,9.35,1.44,14.35.33l1.1-.25,1.79-.42a81.59,81.59,0,0,0,9.51-3,89,89,0,0,0,16-8.07q2.19-1.38,4.45-3a54.82,54.82,0,0,1-45.27,24.07c.39.5.82,1,1.28,1.57s.94,1.08,1.46,1.64a34.45,34.45,0,0,0,14.28,9.44c13.28,4.37,27-1.34,39.55-9.44,3.12-2,6.17-4.17,9.14-6.35s5.84-4.4,8.61-6.54a175.47,175.47,0,0,0,17.87-15.81,225.24,225.24,0,0,0,15.19-17.12c7-8.64,13.57-17.8,20.64-27.63,2.1-2.91,4-5.7,5.88-8.36,4.74-6.86,8.6-12.82,11.49-17.41-3.64.07-7.87.2-12.61.44-7.9.4-17.2,1.1-27.57,2.31-19.71,2.29-35.52,4.13-55.28,10.84-3.71,1.26-7.14,2.54-10.36,3.82-20.44,8.16-31.3,16.49-36,20.55-7.07,6.05-11.27,11.21-13.78,15.44-3.26,5.5-3.64,9.42-3.66,11.7a25.4,25.4,0,0,0,2.44,10.87,33.67,33.67,0,0,0,2.57,4.53A96.82,96.82,0,0,1,462.88,273.79Z"/><path class="cls-3" d="M393.4,500a43.3,43.3,0,0,0-1.6-5.26c-.32-.85-.66-1.69-1-2.5-.46-1-1-2-1.52-3a31.11,31.11,0,0,0-3.91-5.39,29.15,29.15,0,0,0-2.45-2.39,35.3,35.3,0,0,0-17.46-7.81c-.74-.13-1.45-.23-2.13-.31a54.16,54.16,0,0,1,4.59,9.88,55.52,55.52,0,0,1,2.31,9h-7.52c-.06-.19-.11-.41-.17-.59-.54-1.75-4.74-15.19-8.55-15-2.17.13-3.73,3.89-5.26,8.86-.71,2.28-1.32,4.52-1.85,6.71-.91,3.74-1.58,7.31-2.07,10.61s-.81,6.35-1,9c-.1,1.34-.17,2.59-.22,3.74,0,.58,0,1.14-.06,1.67-.06,2.06-.05,3.7,0,4.8,0,.28,0,.52,0,.73,0,1.1,0,2.25.1,3.44.13,3.56.35,7.51.71,11.8.47,5.61,1.17,11.8,2.23,18.48a104.42,104.42,0,0,1-6.71-18.48,100.79,100.79,0,0,1-2.38-12.29,94.8,94.8,0,0,1,0-24.47c.42-3.19,1-6.2,1.65-9.06a96.79,96.79,0,0,1,6.35-18.55,27.41,27.41,0,0,0-15.79,3.6c-2.52,1.53-7.07,5-10.76,14.95a70.74,70.74,0,0,0-2.82,9.87c-.27,1.29-.53,2.65-.78,4.07a105.83,105.83,0,0,0-1.1,23.37q.19,3.95.67,8.51a195.76,195.76,0,0,0,3.31,20.45c1.19,5.55,2.54,10.66,4,15.53,4,13,9.08,24.32,15,37.49,1.71,3.81,3.41,7.43,5.06,10.84,4.14,8.55,8,15.86,11.3,21.72.66,1.17,1.29,2.29,1.89,3.34,1.71-3.35,3.73-7.44,6-12.16s4.69-10.07,7.24-16c6-13.86,11.5-26.57,15.86-39.64.62-1.86,1.22-3.74,1.8-5.62a181.07,181.07,0,0,0,6.79-31.9c.16-1.34.33-2.7.48-4.08a194.78,194.78,0,0,0,1.53-20.8A77.36,77.36,0,0,0,394,502.78C393.81,501.85,393.62,500.94,393.4,500Z"/><path class="cls-3" d="M604.58,492.27c-4.39-6.92-9.82-15-16.36-24-3.09-4.2-6-8.18-8.94-12-3.07-4-6.14-7.92-9.38-11.74a183.67,183.67,0,0,0-18.46-18.9q-2.13-1.89-4.19-3.62c-4.1-3.46-8-6.45-11.59-9-13.46-9.66-23.36-13.79-28.36-15.59-20.15-7.24-28.69-3.69-32.21-1.73a27.45,27.45,0,0,0-10.91,12A96.2,96.2,0,0,1,488.76,413c1.12.41,2.25.83,3.39,1.29a94.54,94.54,0,0,1,19.44,10.68,99,99,0,0,1,11.61,9.69c.83.8,1.62,1.6,2.38,2.39a104.37,104.37,0,0,1,9,10.63q.66.9,1.23,1.71c-4-3.19-7.87-6.06-11.53-8.64-2.44-1.72-4.79-3.32-7-4.79-1.12-.74-2.22-1.44-3.28-2.12q-3.19-2-6-3.7a120.54,120.54,0,0,0-35-13.81c-1.27-.27-2.48-.51-3.59-.69a13.16,13.16,0,0,0-5.32-.05,2.48,2.48,0,0,0-1.39,1c-2.08,3.24,6.07,11.89,8.83,14.81a86.68,86.68,0,0,0,27,19.12c-1.22-.09-2.74-.25-4.51-.53a54.89,54.89,0,0,1-20.41-7.7q-2-1.23-3.68-2.53a54.92,54.92,0,0,1-13.66-14.89c-.4-.65-.75-1.24-1.06-1.77A39.33,39.33,0,0,0,451.93,438a32.15,32.15,0,0,0,.61,6.13,31.23,31.23,0,0,0,5.51,12.19,45.55,45.55,0,0,0,8.35,8.61c1.61,1.29,3.31,2.52,5.07,3.69a114.82,114.82,0,0,0,14.18,7.84c1,.47,2,.93,3,1.37,3.95,1.8,7.91,3.46,11.69,5a180,180,0,0,0,29.53,9.44q3,.68,6,1.28c14,2.81,28.16,4.32,43.69,6,8,.85,15.16,1.42,21.25,1.81,3.66.23,6.92.4,9.74.53C608.81,499.05,606.82,495.8,604.58,492.27Z"/><path class="cls-3" d="M253.55,425.14A54.67,54.67,0,0,1,224,449.68a57.19,57.19,0,0,1-6.49,1.82,54.67,54.67,0,0,1-7.31,1.07,98,98,0,0,0,9.15-4.85,85.17,85.17,0,0,0,7.45-5,80.15,80.15,0,0,0,10.41-9.26c1.21-1.28,3.45-3.66,5.41-6.2.28-.36.56-.72.82-1.09.53-.73,1-1.47,1.45-2.19.21-.35.41-.71.58-1.05a7.52,7.52,0,0,0,.9-2.84,2.4,2.4,0,0,0-.33-1.45c-.88-1.37-3.38-1.43-6.71-.91-1.11.17-2.32.41-3.59.69a120.24,120.24,0,0,0-35,13.81q-2.82,1.68-6,3.7c-1.06.67-2.15,1.38-3.28,2.12-2.24,1.47-4.59,3.06-7,4.78-3.66,2.59-7.52,5.46-11.53,8.64,6.05-8.58,19.84-25.47,43.62-35.1a94.62,94.62,0,0,1,10-3.39,96.27,96.27,0,0,1,18-3.23,27.37,27.37,0,0,0-10.9-12c-3.53-2-12.07-5.51-32.22,1.73-4.62,1.66-13.43,5.31-25.37,13.48a191,191,0,0,0-18.77,14.78A186.61,186.61,0,0,0,136.81,449c-2,2.4-3.91,4.83-5.82,7.31-3.46,4.49-6.89,9.16-10.55,14.14-5.89,8-10.88,15.4-15,21.85-2.8,4.37-5.24,8.33-7.25,11.71,5.64-.26,13.06-.68,21.82-1.46,2.91-.25,6-.55,9.17-.89l7.71-.83c12.67-1.38,24.53-2.83,36.23-5.2,4.68-1,9.34-2,14-3.33a177,177,0,0,0,21.25-7.33c15.95-6.68,35-14.69,43.7-28.66h0a31.56,31.56,0,0,0,3.38-7.39c.26-.88.49-1.78.68-2.7a32.33,32.33,0,0,0,.13-11.79A42.49,42.49,0,0,0,253.55,425.14Z"/><path class="cls-3" d="M243.94,246.27c-5.48-4.7-19.14-15.12-46.4-24.37-19.76-6.71-35.57-8.55-55.28-10.85-16.58-1.93-30.46-2.55-40.18-2.74,4,6.36,9.87,15.33,17.37,25.77,16.82,23.37,31,43,53.7,60.56,16.7,12.87,37.45,28.86,57.3,22.32,8.15-2.68,13.68-8.35,17-12.65a54.74,54.74,0,0,1-45.27-24.06,86.73,86.73,0,0,0,30,14c3.91.95,15.45,3.76,17.24.34,1-1.93-1.42-5.19-4.9-9.06a120,120,0,0,0-29.34-23.6,251.64,251.64,0,0,0-30.5-14.69c10.45,1,31.95,4.63,52.08,20.53a95.8,95.8,0,0,1,19.6,21,27.33,27.33,0,0,0,5-15.4C261.34,269.38,260.2,260.19,243.94,246.27Z"/><path class="cls-3" d="M344.87,235.09a54.7,54.7,0,0,1-1.66-51.24,86.93,86.93,0,0,0,2.77,33c1.12,3.86,4.44,15.28,8.29,15.13a2.29,2.29,0,0,0,.28-.08c2-.37,3.49-3.76,5-8.27,0-.14.09-.27.14-.41a116.82,116.82,0,0,0,3.39-12.78A119.28,119.28,0,0,0,365.56,186c0-1.78,0-3.7-.1-5.7a250.39,250.39,0,0,0-2.35-28.07,103.86,103.86,0,0,1,8.18,28.07,97.76,97.76,0,0,1,.95,12.95,93.52,93.52,0,0,1-4.84,30.36,97.71,97.71,0,0,1-4.65,11.48,27.38,27.38,0,0,0,15.85-3.32,22.07,22.07,0,0,0,7.83-8.16c.64-1.07,1.29-2.27,1.93-3.63a60.39,60.39,0,0,0,3.58-10.12c.55-2.05,1.06-4.28,1.52-6.73a101,101,0,0,0,1.59-18.81c0-1.29,0-2.62-.06-4a180.64,180.64,0,0,0-3.49-29.54c-.43-2.21-.9-4.35-1.39-6.44s-1-4.25-1.58-6.3a230.78,230.78,0,0,0-10.15-28.84c-1.58-3.81-3.24-7.7-5-11.77-6.58-15.34-12.94-27.68-17.62-36.21-.38.73-.8,1.51-1.22,2.31-3.39,6.48-7.75,15.17-12.48,25.58-11.9,26.22-21.92,48.29-25.8,76.72-2.85,20.89-6.39,46.85,9.16,60.81C331.81,232.36,339.48,234.33,344.87,235.09Z"/><path class="cls-4" d="M462.62,341.4a108.87,108.87,0,0,0-108.07-96h0A108.86,108.86,0,0,0,245.7,354.29c0,2.25.09,4.47.23,6.69h0c.09,1.36.19,2.72.33,4.07.26,2.7.63,5.37,1.09,8,.23,1.32.48,2.63.76,3.93a108.12,108.12,0,0,0,14.8,36,109.34,109.34,0,0,0,37.62,35.82c2.54,1.45,5.15,2.81,7.81,4.06,1.33.62,2.68,1.22,4,1.8s2.74,1.12,4.13,1.63h0a108.93,108.93,0,0,0,76.09,0h0a106.72,106.72,0,0,0,12.11-5.39q3.9-2,7.61-4.37t7.22-4.94c1.17-.88,2.32-1.77,3.45-2.69a109.38,109.38,0,0,0,18.18-18.75q2.64-3.48,5-7.17a108,108,0,0,0,16.58-47.16,106.76,106.76,0,0,0,.62-11.52A109.74,109.74,0,0,0,462.62,341.4Z"/></svg>